<?xml version="1.0" standalone="no"?>
<svg xmlns:xlink="http://www.w3.org/1999/xlink" id="wave" style="transform:rotate(180deg); transition: 0.3s" viewBox="0 0 1440 130" version="1.1" xmlns="http://www.w3.org/2000/svg"><defs><linearGradient id="sw-gradient-0" x1="0" x2="0" y1="1" y2="0"><stop stop-color="rgba(232, 106, 51, 1)" offset="0%"/><stop stop-color="rgba(232, 106, 51, 1)" offset="100%"/></linearGradient></defs><path style="transform:translate(0, 0px); opacity:1" fill="url(#sw-gradient-0)" d="M0,78L60,73.7C120,69,240,61,360,65C480,69,600,87,720,95.3C840,104,960,104,1080,99.7C1200,95,1320,87,1440,75.8C1560,65,1680,52,1800,41.2C1920,30,2040,22,2160,15.2C2280,9,2400,4,2520,21.7C2640,39,2760,78,2880,86.7C3000,95,3120,74,3240,73.7C3360,74,3480,95,3600,97.5C3720,100,3840,82,3960,71.5C4080,61,4200,56,4320,58.5C4440,61,4560,69,4680,60.7C4800,52,4920,26,5040,28.2C5160,30,5280,61,5400,71.5C5520,82,5640,74,5760,78C5880,82,6000,100,6120,97.5C6240,95,6360,74,6480,73.7C6600,74,6720,95,6840,86.7C6960,78,7080,39,7200,30.3C7320,22,7440,43,7560,47.7C7680,52,7800,39,7920,47.7C8040,56,8160,87,8280,88.8C8400,91,8520,65,8580,52L8640,39L8640,130L8580,130C8520,130,8400,130,8280,130C8160,130,8040,130,7920,130C7800,130,7680,130,7560,130C7440,130,7320,130,7200,130C7080,130,6960,130,6840,130C6720,130,6600,130,6480,130C6360,130,6240,130,6120,130C6000,130,5880,130,5760,130C5640,130,5520,130,5400,130C5280,130,5160,130,5040,130C4920,130,4800,130,4680,130C4560,130,4440,130,4320,130C4200,130,4080,130,3960,130C3840,130,3720,130,3600,130C3480,130,3360,130,3240,130C3120,130,3000,130,2880,130C2760,130,2640,130,2520,130C2400,130,2280,130,2160,130C2040,130,1920,130,1800,130C1680,130,1560,130,1440,130C1320,130,1200,130,1080,130C960,130,840,130,720,130C600,130,480,130,360,130C240,130,120,130,60,130L0,130Z"/></svg>